Coordinates
version=1
nRows=17
nColumns=36
inDegrees=yes

Units are S.I. units (second, meters, Newtons, ...)
If the header above contains a line with 'inDegrees', this indicates whether rotational values are in degrees (yes) or radians (no).

endheader
time	pelvis_tilt	pelvis_list	pelvis_rotation	pelvis_tx	pelvis_ty	pelvis_tz	hip_flexion_r	hip_adduction_r	hip_rotation_r	knee_angle_r	knee_angle_r_beta	ankle_angle_r	subtalar_angle_r	mtp_angle_r	hip_flexion_l	hip_adduction_l	hip_rotation_l	knee_angle_l	knee_angle_l_beta	ankle_angle_l	subtalar_angle_l	mtp_angle_l	lumbar_extension	lumbar_bending	lumbar_rotation	arm_flex_r	arm_add_r	arm_rot_r	elbow_flex_r	pro_sup_r	arm_flex_l	arm_add_l	arm_rot_l	elbow_flex_l	pro_sup_l
      0.00000000	      2.31940080	     -0.83947520	      1.80424772	     -1.10019174	      1.28426760	     -0.06890657	     -3.06841124	      1.05196341	      3.88907014	      3.20821362	      0.05599389	      5.18775833	    -12.68090960	     -6.40386543	     -3.79257983	     -3.42139344	      2.74465569	      1.59479856	      0.02783449	      7.39308191	     -7.46737954	     -6.40386543	    -13.93178973	      1.58595390	     -2.06034388	      4.31657257	     -7.17298409	     11.00960700	     22.90322588	     74.64880302	      8.41796442	     -9.72668064	     26.34581704	     20.03155439	     62.17505569
      0.00416670	      0.52247838	     -1.13386897	      0.66332601	     -1.09838840	      1.28125531	     -0.06873006	     -0.70032285	      1.24149551	      5.16887916	      4.16207384	      0.07264189	      7.38058644	    -11.12484836	     -6.72087985	     -1.97985842	     -3.27153971	      2.51778148	      1.47779082	      0.02579232	      6.93818892	     -6.90528276	     -6.72087985	    -11.04412743	      2.17757825	     -1.52379941	      3.96306299	     -6.50974539	      8.14429033	     21.35559818	     72.66441211	      7.78634854	     -8.34157351	     22.47945204	     18.53872540	     61.17543907
      0.00833330	     -0.12311210	     -0.72490318	      0.10774093	     -1.09734993	      1.27676141	     -0.06709220	     -0.30233185	      0.78757110	      5.12510711	      3.77900460	      0.06595607	      7.81302314	    -10.81424664	     -6.80629746	     -1.44618803	     -2.88628534	      1.60157289	      1.36570212	      0.02383600	      7.06230103	     -6.19975494	     -6.80629746	    -10.05881306	      1.34366257	     -1.34545729	      3.35236504	     -5.71674055	      6.00302617	     21.45131479	     73.18273340	      7.54491434	     -8.56499375	     20.47272264	     18.69844491	     61.34735643
      0.01250000	     -0.05673687	     -0.46592268	     -0.12419207	     -1.09806023	      1.27762512	     -0.06680340	     -0.28076448	      0.51665867	      5.16326024	      3.84498204	      0.06710760	      8.25662319	    -10.67592293	     -6.90975376	     -1.78298178	     -2.62111792	      1.37821488	      0.98448898	      0.01718257	      7.04248111	     -6.23723942	     -6.90975376	    -10.42450171	      0.94651784	     -1.00888182	      3.09971695	     -5.46209891	      5.18456673	     21.72439875	     72.49928195	      7.38850180	     -8.67871128	     19.95684483	     18.40325445	     61.20803265
      0.01666670	     -0.04862263	     -0.42381274	     -0.41099666	     -1.09827030	      1.28083957	     -0.06657881	     -0.40292705	      0.47721368	      5.22511631	      3.57886119	      0.06246291	      8.38637931	    -10.40601968	     -7.27391205	     -1.91833215	     -2.59304440	      1.09918196	      0.77426905	      0.01351354	      7.25415977	     -5.89629959	     -7.27391205	    -10.61632096	      0.94254194	     -0.38100729	      2.75542345	     -5.23234078	      1.89051876	     22.07821385	     79.21445865	      7.58538713	     -8.45017199	     20.39416420	     17.54484082	     61.91045544
      0.02083330	      0.01877628	     -0.35325741	     -0.63988355	     -1.09888394	      1.28074963	     -0.06643151	     -0.42741138	      0.43643001	      5.52299063	      3.56739572	      0.06226280	      8.22261815	    -10.66724130	     -7.35878446	     -2.02208571	     -2.49973659	      0.88650271	      0.69035773	      0.01204902	      7.28640977	     -5.89455887	     -7.35878446	    -10.85932151	      0.92009750	     -0.00762238	      2.95627031	     -5.34265868	      2.66915445	     21.86259849	     76.12814854	      7.84213304	     -8.16503336	     20.34601039	     17.24246359	     61.22814681
      0.02500000	      0.20015722	     -0.32690648	     -0.76830572	     -1.09897662	      1.28042913	     -0.06620614	     -0.73795474	      0.38743372	      5.56998471	      3.29254122	      0.05746569	      8.12397002	    -10.55325637	     -7.42302555	     -2.22296635	     -2.47436366	      0.89991877	      0.62903736	      0.01097877	      7.34488468	     -6.06649272	     -7.42302555	    -11.26385267	      0.98467131	      0.27639365	      3.20098556	     -5.55721856	      3.85930615	     21.91018286	     73.05705082	      7.98705917	     -7.97419385	     20.34269753	     17.16367881	     60.51241791
      0.02916670	      0.19519194	     -0.25879847	     -0.86874936	     -1.09938164	      1.28025235	     -0.06618145	     -0.70719779	      0.31549030	      5.70701808	      3.29358452	      0.05748389	      7.99836794	    -10.68068989	     -7.46960036	     -2.21239996	     -2.39676561	      0.86056382	      0.61884309	      0.01080085	      7.37794397	     -6.09302694	     -7.46960036	    -11.32049048	      0.99462454	      0.35597785	      3.71556005	     -5.50918288	      3.16237877	     21.54803497	     78.40224559	      8.09541664	     -7.97344186	     21.93438025	     16.89074635	     58.87463294
      0.03333330	      0.48239978	     -0.22587271	     -0.78948923	     -1.09225597	      1.27656378	     -0.06142819	     -1.25163765	      0.39445224	      5.91575652	      3.09869492	      0.05408243	      7.87705620	    -10.96296455	     -7.47085383	     -2.63021001	     -2.47895044	      0.87689606	      0.61262783	      0.01069237	      7.42776881	     -6.23123066	     -7.47085383	    -11.51816103	      0.93377914	      0.48105797	      3.74102736	     -5.45667546	      3.12482693	     21.52282727	     77.42458211	      7.88150887	     -7.94599396	     21.34402575	     16.89956959	     58.69342382
      0.03750000	      0.50386678	     -0.16259474	     -0.74049634	     -1.09276019	      1.27684350	     -0.06142482	     -1.48185935	      0.43944505	      6.03539466	      3.03278835	      0.05293214	      7.81042012	    -11.42251788	     -7.48100412	     -2.71078521	     -2.53631113	      0.84485874	      0.61124563	      0.01066825	      7.50635335	     -6.21334834	     -7.48100412	    -11.43815185	      0.83476674	      0.62450266	      3.73195656	     -5.41381805	      3.78783857	     21.20652214	     75.48728571	      7.87943702	     -7.95108716	     21.36454592	     16.70005639	     58.61424923
      0.04166670	      0.67106899	     -0.11573269	     -0.67186666	     -1.09255771	      1.27705023	     -0.06161299	     -1.83051248	      0.45746512	      6.12539262	      2.92960238	      0.05113121	      7.77554139	    -11.65197733	     -7.49345333	     -2.95958809	     -2.58773371	      0.93859535	      0.60909452	      0.01063070	      7.46601995	     -6.30455849	     -7.49345333	    -11.52590272	      0.81510409	      0.68739713	      3.73766965	     -5.36568190	      2.47249402	     21.29246731	     79.08615489	      7.71773433	     -8.06373658	     21.82339673	     16.89628734	     57.53431215
      0.04583330	      0.65827345	     -0.02432870	     -0.58842627	     -1.09313069	      1.28074759	     -0.07167438	     -1.88406920	      0.19057013	      5.77567196	      2.89733493	      0.05056803	      7.66809665	    -11.48542940	     -7.49389428	     -2.99830578	     -2.37910497	      1.24888104	      0.56433364	      0.00984948	      7.11110236	     -6.84629755	     -7.49389428	    -11.50625553	      0.98001070	      0.69339039	      3.86070147	     -5.70301541	      2.70573074	     21.26699434	     77.96121148	      7.60406605	     -7.73743818	     21.62585926	     17.06817014	     57.65331602
      0.05000000	      0.65321329	      0.01455319	     -0.56014465	     -1.09341751	      1.28396967	     -0.07171845	     -1.92460292	      0.02818877	      5.73805711	      2.84609135	      0.04967366	      7.65695212	    -11.53158839	     -7.49390187	     -2.99950430	     -2.25522723	      1.21776311	      0.52473957	      0.00915843	      7.13682372	     -6.81996246	     -7.49390187	    -11.42558801	      1.09088465	      0.62325726	      3.87319699	     -5.81104376	      2.68798660	     21.23895388	     77.96482328	      7.64701058	     -7.64900505	     21.64720223	     17.08267793	     57.65807611
      0.05416670	      0.69702166	      0.05841791	     -0.34020871	     -1.08694120	      1.28389170	     -0.06741164	     -2.31806770	     -0.02933105	      5.73933855	      2.42352184	      0.04229844	      7.39793779	    -11.63690057	     -7.49395113	     -3.12590905	     -2.21750645	      1.32240252	      0.47131136	      0.00822593	      7.17197816	     -6.57568010	     -7.49395113	    -11.22130179	      1.09401544	      0.48441177	      3.63658564	     -5.78701103	      2.62933806	     20.93097715	     77.99659383	      7.42532664	     -7.57031455	     21.77083366	     16.96025345	     57.68666383
      0.05833330	      0.82374589	      0.03130581	     -0.25790226	     -1.08700331	      1.28340975	     -0.06747776	     -2.65470713	     -0.03296129	      5.71559618	      2.22150070	      0.03877250	      7.17272562	    -11.82420342	     -7.49437477	     -3.36261148	     -2.23854380	      1.14530933	      0.43665881	      0.00762113	      7.34330300	     -6.06075084	     -7.49437477	    -11.24214181	      1.19169250	      0.40154907	      3.69943532	     -5.71858684	      2.47021287	     20.38263744	     77.77997619	      7.39274572	     -7.55043547	     22.34788164	     16.81980183	     57.89002559
      0.06250000	      0.85640371	      0.00811161	     -0.17510452	     -1.08696549	      1.27959212	     -0.06713040	     -2.86575445	      0.02469925	      5.77500221	      2.03691264	      0.03555083	      7.26168169	    -11.88396571	     -7.49436770	     -3.47769150	     -2.28263692	      1.15768578	      0.40123543	      0.00700288	      7.37570440	     -6.07838521	     -7.49436770	    -11.11461909	      1.23485704	      0.38902526	      3.52956431	     -5.74683924	      2.45679508	     20.23153768	     77.81910343	      7.31597988	     -7.64166556	     22.35933531	     16.68470616	     57.88901393
      0.06666670	      0.60518727	     -0.03966121	     -0.26854174	     -1.10056142	      1.28291550	     -0.06681591	     -2.44232658	      0.08223978	      5.73487601	      2.03482965	      0.03551448	      7.33181610	    -11.97763142	     -7.49503425	     -3.05232245	     -2.31643668	      1.18319742	      0.40859149	      0.00713127	      7.35567775	     -6.17193953	     -7.49503425	    -10.95003490	      1.32317650	      0.56034092	      3.82719414	     -5.76929341	      2.41657680	     19.87155975	     77.06219174	      7.66468324	     -7.58083118	     22.57968223	     16.26437009	     58.03651598
